# xmcd CD database file
#
# Track frame offsets:
#	150
#	14890
#	31225
#	41815
#	51820
#	64752
#	80677
#	92000
#	104065
#	119952
#	130255
#	141120
#	153212
#	173912
#	194350
#	202870
#	214962
#	225812
#	236567
#	245787
#	255967
#
# Disc length: 3627 seconds
#
# Revision: 1
# Processed by: cddbd v1.5.2PL0 Copyright (c) Steve Scherf et al.
# Submitted via: CDex 1.51
#
DISCID=2f0e2915
DTITLE=Various Artist - 2.UP presents Country Vol 3 - CD2
DYEAR=1991
DGENRE=Country
TTITLE0=Faron Young - Wine  Me Up
TTITLE1=Faron Young - This Little  Girl  Of  Mine
TTITLE2=Faron Young - Going Steady
TTITLE3=Faron Young - Hello  Walls
TTITLE4=Faron Young - Four In The Morning
TTITLE5=Tom T. Hall - I Like Bear
TTITLE6=Tom T. Hall - Ravishing Ruby
TTITLE7=Tom T. Hall - The Year Clayton Delaney Died
TTITLE8=Tom T. Hall - Old Dogs,Children And Watermelon Wine
TTITLE9=Leroy Van Dyke - Walk On By
TTITLE10=Leroy Van Dyke - The Auctioneer
TTITLE11=Johnny Russell - Got  No Reason Now For Going Home
TTITLE12=Johnny Russell - Crystal Chandeliers
TTITLE13=Jimmy Dean - Bill Bailey
TTITLE14=Jimmy Dean - Big Bad John
TTITLE15=Porter Wagoner - Ole Slewfoot
TTITLE16=Porter Wagoner - I Thought IHeard You Calling My Name
TTITLE17=Porter Wagoner - Sugarfoot Rag
TTITLE18=Porter Wagoner - Louisiana  Saturday Night
TTITLE19=Porter Wagoner - Satisfied Mind
TTITLE20=Porter Wagoner - Y'All  Come
EXTD=compilation  by Castle  Comunication Australasia  1991 .\nvolume 3 of 6 YEAR: 1991
EXTT0=
EXTT1=
EXTT2=
EXTT3=
EXTT4=
EXTT5=
EXTT6=
EXTT7=
EXTT8=
EXTT9=
EXTT10=
EXTT11=
EXTT12=
EXTT13=
EXTT14=
EXTT15=
EXTT16=
EXTT17=
EXTT18=
EXTT19=
EXTT20=
PLAYORDER=
